<svg width="17" height="17" viewBox="0 0 17 17" fill="none" xmlns="http://www.w3.org/2000/svg">
<g clip-path="url(#clip0_226_1130)">
<path d="M11.6868 0C10.7805 0.0626871 9.72115 0.642809 9.10384 1.39824C8.54072 2.08355 8.07748 3.10142 8.2581 4.0906C9.24834 4.12141 10.2715 3.52748 10.8644 2.7593C11.419 2.04424 11.8387 1.03274 11.6868 0Z" fill="#6C523B" fill-opacity="0.77"/>
<path d="M15.2685 5.70392C14.3983 4.61274 13.1753 3.97949 12.0204 3.97949C10.4957 3.97949 9.8508 4.70943 8.79149 4.70943C7.69925 4.70943 6.86944 3.98162 5.55089 3.98162C4.25571 3.98162 2.87659 4.77317 2.00216 6.12679C0.772852 8.03291 0.983226 11.6167 2.9754 14.6692C3.68833 15.7615 4.64033 16.9897 5.88557 17.0004C6.99375 17.011 7.30613 16.2895 8.80743 16.2821C10.3087 16.2736 10.5935 17.0099 11.6995 16.9982C12.9458 16.9887 13.9499 15.6276 14.6628 14.5354C15.1739 13.7523 15.3641 13.3581 15.7604 12.4741C12.8778 11.3766 12.4157 7.27747 15.2685 5.70392Z" fill="#6C523B" fill-opacity="0.77"/>
</g>
<defs>
<clipPath id="clip0_226_1130">
<rect width="17" height="17" fill="white"/>
</clipPath>
</defs>
</svg>
