<svg width="20" height="20" viewBox="0 0 20 20" fill="none" xmlns="http://www.w3.org/2000/svg">
<path fill-rule="evenodd" clip-rule="evenodd" d="M9.375 3.125V1.25H10.625V3.125H9.375ZM14.2887 13.6399C14.7331 14.1797 15 14.8711 15 15.6249C15 17.3508 13.6009 18.7499 11.875 18.7499L11.8521 18.7498H7.21172V18.7498L7.18751 18.7499C4.59867 18.7499 2.5 16.6512 2.5 14.0624C2.5 12.5251 3.23998 11.1607 4.38318 10.3059C4.37775 10.2046 4.375 10.1026 4.375 10C4.375 6.8934 6.8934 4.375 10 4.375C13.1066 4.375 15.625 6.8934 15.625 10C15.625 11.3882 15.1222 12.6589 14.2887 13.6399ZM13.3176 12.8521C12.8861 12.6271 12.3954 12.4999 11.875 12.4999C11.3466 12.4999 10.8488 12.6311 10.4124 12.8626C10.5516 13.2362 10.6276 13.6405 10.6276 14.0625C10.6276 14.1182 10.6263 14.1735 10.6237 14.2286C10.9556 13.9309 11.3941 13.7499 11.875 13.7499C12.9105 13.7499 13.75 14.5894 13.75 15.6249C13.75 16.6605 12.9105 17.4999 11.875 17.4999V17.4998H11.8573L11.8332 17.4995H7.23957C7.22224 17.4997 7.20489 17.4999 7.18751 17.4999C5.28902 17.4999 3.75 15.9608 3.75 14.0624C3.75 12.1639 5.28902 10.6248 7.18751 10.6248C8.66441 10.6248 9.92378 11.5563 10.4103 12.8637C10.7741 12.6703 11.1807 12.5467 11.6121 12.5108C10.9717 10.6845 9.23256 9.37485 7.18751 9.37485C6.6452 9.37485 6.1244 9.46694 5.6399 9.63634C5.82472 7.39024 7.70621 5.625 10 5.625C12.4162 5.625 14.375 7.58375 14.375 10C14.375 11.0896 13.9767 12.0862 13.3176 12.8521ZM18.75 9.375H16.875V10.625H18.75V9.375ZM15.6414 6.02123L17.2652 5.08373L17.8902 6.16627L16.2664 7.10377L15.6414 6.02123ZM13.8338 2.10983L12.8963 3.73363L13.9788 4.35863L14.9163 2.73483L13.8338 2.10983ZM6.02123 4.35863L5.08373 2.73483L6.16627 2.10983L7.10377 3.73363L6.02123 4.35863ZM2.10979 6.16627L3.73359 7.10377L4.35859 6.02123L2.73479 5.08373L2.10979 6.16627ZM1.25 9.375H3.125V10.625H1.25V9.375ZM15.6414 13.9788L17.2652 14.9163L17.8902 13.8337L16.2664 12.8962L15.6414 13.9788Z" fill="white"/>
</svg>
