<svg width="20" height="20" viewBox="0 0 20 20" fill="none" xmlns="http://www.w3.org/2000/svg">
<path fill-rule="evenodd" clip-rule="evenodd" d="M9.375 3.125V1.25H10.625V3.125H9.375ZM12.8963 3.73363L13.8338 2.10983L14.9163 2.73483L13.9788 4.35863L12.8963 3.73363ZM10 14.375C12.4162 14.375 14.375 12.4162 14.375 10C14.375 7.58375 12.4162 5.625 10 5.625C7.58375 5.625 5.625 7.58375 5.625 10C5.625 12.4162 7.58375 14.375 10 14.375ZM10 15.625C13.1066 15.625 15.625 13.1066 15.625 10C15.625 6.8934 13.1066 4.375 10 4.375C6.8934 4.375 4.375 6.8934 4.375 10C4.375 13.1066 6.8934 15.625 10 15.625ZM16.875 9.375H18.75V10.625H16.875V9.375ZM17.2652 5.08373L15.6414 6.02123L16.2664 7.10377L17.8902 6.16627L17.2652 5.08373ZM5.08373 2.73483L6.02123 4.35863L7.10377 3.73363L6.16627 2.10983L5.08373 2.73483ZM3.73359 7.10377L2.10979 6.16627L2.73479 5.08373L4.35859 6.02123L3.73359 7.10377ZM9.375 16.875V18.75H10.625V16.875H9.375ZM3.125 9.375H1.25V10.625H3.125V9.375ZM2.10976 13.8337L3.73356 12.8962L4.35856 13.9788L2.73476 14.9163L2.10976 13.8337ZM6.02127 15.6415L5.08377 17.2653L6.1663 17.8903L7.1038 16.2665L6.02127 15.6415ZM13.8337 17.8903L12.8962 16.2665L13.9788 15.6415L14.9163 17.2653L13.8337 17.8903ZM15.6414 13.9788L17.2652 14.9163L17.8902 13.8337L16.2664 12.8962L15.6414 13.9788Z" fill="#FDFCFC" fill-opacity="0.77"/>
</svg>
