<svg width="20" height="20" viewBox="0 0 20 20" fill="none" xmlns="http://www.w3.org/2000/svg">
<path fill-rule="evenodd" clip-rule="evenodd" d="M11.0225 1.25V2.77196H12.2725V1.25H11.0225ZM18.75 7.72746H17.228L17.228 8.97746H18.75V7.72746ZM16.1679 5.02094L17.486 4.25996L18.111 5.34249L16.7929 6.10347L16.1679 5.02094ZM14.6575 1.88903L13.8966 3.20708L14.9791 3.83208L15.7401 2.51403L14.6575 1.88903ZM8.31602 3.83208L7.55505 2.51403L8.63758 1.88903L9.39856 3.20708L8.31602 3.83208ZM18.75 14.2188C18.75 12.3272 17.6309 10.7063 16.0411 10.0276C16.2381 9.50684 16.346 8.9422 16.346 8.35237C16.346 5.73732 14.2261 3.6174 11.611 3.6174C10.2244 3.6174 8.97708 4.21339 8.11112 5.16316C8.01213 5.15857 7.91258 5.15625 7.8125 5.15625C4.18813 5.15625 1.25 8.19931 1.25 11.9531C1.25 15.7069 4.18813 18.75 7.8125 18.75C7.85365 18.75 7.89472 18.7496 7.93569 18.7488V18.75H14.3718L14.375 18.75L14.3782 18.75H14.5259V18.7474C16.8723 18.665 18.75 16.669 18.75 14.2188ZM15.096 8.35237C15.096 8.83428 14.9982 9.29334 14.8213 9.71079C14.6746 9.69539 14.5257 9.6875 14.375 9.6875C14.251 9.6875 14.1283 9.69284 14.007 9.70331C13.3154 7.66063 11.7085 6.06375 9.6959 5.44031C10.2455 5.07816 10.9036 4.8674 11.611 4.8674C13.5357 4.8674 15.096 6.42768 15.096 8.35237ZM7.8125 17.5L7.83818 17.4999V17.5L7.93569 17.5L14.3733 17.5H14.375L14.3777 17.5C16.0614 17.4985 17.5 16.0717 17.5 14.2188C17.5 12.3649 16.0599 10.9375 14.375 10.9375C13.9186 10.9375 13.4803 11.0422 13.0836 11.2317C13.0296 10.8025 12.9281 10.3886 12.7847 9.99616L12.786 9.99561C12.0231 7.88091 10.0608 6.40625 7.8125 6.40625C4.91947 6.40625 2.5 8.84796 2.5 11.9531C2.5 15.0583 4.91947 17.5 7.8125 17.5Z" fill="#FDFCFC" fill-opacity="0.77"/>
</svg>
