<svg width="14" height="14" viewBox="0 0 14 14" fill="none" xmlns="http://www.w3.org/2000/svg">
<g clip-path="url(#clip0_226_1120)">
<path d="M3.1027 8.46086L2.61538 10.2801L0.834231 10.3178C0.30193 9.33047 0 8.20087 0 7.00048C0 5.83971 0.282297 4.74509 0.782688 3.78125L2.36879 4.07197L3.06343 5.64817C2.91804 6.07203 2.8388 6.52703 2.8388 7.00048C2.83886 7.51433 2.93193 8.00665 3.1027 8.46086Z" fill="#734218"/>
<path d="M13.8777 5.69238C13.9581 6.11583 14 6.55314 14 7.00007C14 7.50123 13.9474 7.99008 13.847 8.46162C13.5062 10.0662 12.6158 11.4674 11.3824 12.4589L9.38469 12.3566L9.10201 10.592C9.92047 10.112 10.5601 9.36085 10.897 8.46162H7.15393V5.69238H10.9516H13.8777Z" fill="#7E5430"/>
<path d="M11.3819 12.458C10.1823 13.4222 8.65884 13.9996 7 13.9996C4.33423 13.9996 2.01655 12.5096 0.834229 10.3169L3.10269 8.45996C3.69384 10.0376 5.21576 11.1607 7 11.1607C7.76691 11.1607 8.48539 10.9534 9.10191 10.5915L11.3819 12.458Z" fill="#915928"/>
<path d="M11.4681 1.61153L9.20039 3.46806C8.56232 3.06923 7.80807 2.83883 7.00001 2.83883C5.17539 2.83883 3.625 4.01343 3.06347 5.64769L0.783081 3.78077C1.94809 1.53461 4.29462 0 7.00001 0C8.69847 0 10.2558 0.605008 11.4681 1.61153Z" fill="#65330B"/>
</g>
<defs>
<clipPath id="clip0_226_1120">
<rect width="14" height="14" fill="white"/>
</clipPath>
</defs>
</svg>
