<svg width="24" height="25" viewBox="0 0 24 25" fill="none" xmlns="http://www.w3.org/2000/svg">
<path d="M23.4922 12.4805C23.4922 13.1836 22.9062 13.7344 22.2422 13.7344H20.9922L21.0195 19.9883C21.0195 20.0977 21.0117 20.1992 21 20.3047V20.9375C21 21.8008 20.3008 22.5 19.4375 22.5H18.8125C18.7695 22.5 18.7266 22.4648 18.6836 22.4961C18.6289 22.4648 18.5742 22.5 18.5195 22.5H16.3125C15.4492 22.5 14.75 21.8008 14.75 20.9375V17.5C14.75 16.8086 14.1914 16.25 13.5 16.25H11C10.3086 16.25 9.75 16.8086 9.75 17.5V20.9375C9.75 21.8008 9.05078 22.5 8.1875 22.5H6.00391C5.94531 22.5 5.88672 22.4961 5.82812 22.4922C5.78125 22.4961 5.73438 22.5 5.6875 22.5H5.0625C4.19961 22.5 3.5 21.8008 3.5 20.9375V16.5625C3.5 16.5273 3.50117 16.4883 3.50352 16.4531V13.7344H2.25195C1.54766 13.7344 1 13.1836 1 12.4805C1 12.1289 1.11734 11.8164 1.39102 11.543L11.4062 2.81312C11.6797 2.53914 11.9922 2.5 12.2656 2.5C12.5391 2.5 12.8516 2.57828 13.0898 2.77398L23.0625 11.543C23.375 11.8164 23.5352 12.1289 23.4922 12.4805Z" fill="white"/>
</svg>
