<svg width="20" height="20" viewBox="0 0 20 20" fill="none" xmlns="http://www.w3.org/2000/svg">
<path fill-rule="evenodd" clip-rule="evenodd" d="M17.2445 11.9412C17.5321 10.8676 17.5716 9.78598 17.3982 8.75723C17.1659 9.50219 16.7515 10.1458 16.2169 10.6509L16.2164 10.6563C15.8164 11.0502 15.3448 11.3652 14.8263 11.5839C14.2439 11.8296 13.6156 11.9481 12.9837 11.9315C12.3517 11.9149 11.7306 11.7636 11.1618 11.4876C10.593 11.2117 10.0897 10.8175 9.68556 10.3314C9.28139 9.84527 8.98566 9.27847 8.81816 8.66889C8.65065 8.0593 8.61522 7.42097 8.71424 6.7966C8.81327 6.17222 9.04446 5.57618 9.39235 5.04833C9.71685 4.55599 10.1359 4.13356 10.6247 3.80533C11.2481 3.36973 11.9809 3.09518 12.7536 3.02306C12.4911 2.91984 12.2201 2.83033 11.9412 2.7556C7.94016 1.68353 3.82764 4.0579 2.75557 8.0589C1.68351 12.0599 4.05788 16.1724 8.05887 17.2445C12.0599 18.3165 16.1724 15.9422 17.2445 11.9412ZM15.6538 12.6665C14.391 15.3523 11.3499 16.8322 8.3824 16.0371C5.04823 15.1437 3.06959 11.7166 3.96298 8.38242C4.57995 6.07987 6.40529 4.42379 8.57391 3.91366C8.47121 4.04357 8.37396 4.17806 8.2825 4.31684C7.83047 5.00268 7.53008 5.77712 7.40142 6.58839C7.27276 7.39966 7.31879 8.22904 7.53643 9.02109C7.75408 9.81314 8.13832 10.5496 8.66347 11.1812C9.18862 11.8128 9.84257 12.325 10.5816 12.6836C11.3206 13.0421 12.1277 13.2387 12.9488 13.2603C13.7699 13.2819 14.5862 13.1279 15.343 12.8086C15.4481 12.7643 15.5518 12.7169 15.6538 12.6665Z" fill="#FDFCFC" fill-opacity="0.77"/>
</svg>
