<svg width="20" height="20" viewBox="0 0 20 20" fill="none" xmlns="http://www.w3.org/2000/svg">
<path fill-rule="evenodd" clip-rule="evenodd" d="M16.1656 9.9835C16.8533 9.32041 17.3203 8.44475 17.4578 7.47386C17.4113 7.49457 17.3645 7.5144 17.3172 7.53333C17.2785 7.54883 17.2396 7.56373 17.2004 7.57802C16.6914 7.76389 16.1443 7.84731 15.5925 7.81778L15.581 7.81715C14.6011 7.76194 13.6764 7.35428 12.9851 6.67257L12.9802 6.66776C12.3539 6.048 11.9605 5.24278 11.8583 4.38284C11.8472 4.28915 11.8395 4.19481 11.8354 4.09998C11.8127 3.58193 11.8964 3.06946 12.0765 2.59106C10.639 2.88018 9.46469 3.8329 8.88531 5.09141C11.2719 5.50254 13.2248 7.26252 14.0069 9.59928C14.1283 9.58869 14.251 9.58328 14.375 9.58328C15.013 9.58328 15.619 9.72634 16.1656 9.9835ZM7.56993 5.00461C8.35835 2.81747 10.4905 1.25 12.9971 1.25C13.6073 1.25 14.1954 1.34291 14.7473 1.51504C14.2394 1.72454 13.8106 2.08052 13.5166 2.52863L13.5068 2.52754C13.2175 2.97968 13.0728 3.50934 13.0963 4.04782C13.099 4.10876 13.1038 4.16941 13.1107 4.22967C13.1781 4.81864 13.4455 5.37065 13.8729 5.79574L13.8778 5.80056C14.3519 6.2697 14.9875 6.54954 15.6609 6.58557L15.6724 6.58616C16.078 6.60618 16.4796 6.53685 16.8488 6.38713C17.0889 6.28976 17.3154 6.15839 17.5204 5.99547L17.5212 5.9965C17.8999 5.6943 18.1932 5.29424 18.3603 4.83595C18.6119 5.46814 18.75 6.15581 18.75 6.875C18.75 8.34693 18.1717 9.68682 17.2253 10.6893C18.1588 11.5299 18.75 12.7759 18.75 14.1666C18.75 16.6979 16.7912 18.75 14.375 18.75L14.375 18.75H7.83017V18.75L7.8125 18.75C4.18813 18.75 1.25 15.672 1.25 11.875C1.25 8.16312 4.05794 5.13829 7.56993 5.00461ZM7.84589 17.4999L7.8125 17.5C4.93265 17.5 2.5 15.037 2.5 11.875C2.5 8.71296 4.93265 6.25 7.8125 6.25C10.0539 6.25 12.0243 7.74191 12.7879 9.89417L12.7865 9.89476C12.9265 10.289 13.026 10.7043 13.0794 11.1349C13.4782 10.9404 13.9185 10.8333 14.375 10.8333C16.0467 10.8333 17.5 12.2702 17.5 14.1666C17.5 16.063 16.0467 17.5 14.375 17.5L14.375 17.5H7.84589V17.4999Z" fill="#FDFCFC" fill-opacity="0.77"/>
</svg>
