<svg width="24" height="25" viewBox="0 0 24 25" fill="none" xmlns="http://www.w3.org/2000/svg">
<path fill-rule="evenodd" clip-rule="evenodd" d="M12 8.5C10.9391 8.5 9.92172 8.92143 9.17157 9.67157C8.42143 10.4217 8 11.4391 8 12.5C8 13.5609 8.42143 14.5783 9.17157 15.3284C9.92172 16.0786 10.9391 16.5 12 16.5C13.0609 16.5 14.0783 16.0786 14.8284 15.3284C15.5786 14.5783 16 13.5609 16 12.5C16 11.4391 15.5786 10.4217 14.8284 9.67157C14.0783 8.92143 13.0609 8.5 12 8.5ZM10.5858 11.0858C10.9609 10.7107 11.4696 10.5 12 10.5C12.5304 10.5 13.0391 10.7107 13.4142 11.0858C13.7893 11.4609 14 11.9696 14 12.5C14 13.0304 13.7893 13.5391 13.4142 13.9142C13.0391 14.2893 12.5304 14.5 12 14.5C11.4696 14.5 10.9609 14.2893 10.5858 13.9142C10.2107 13.5391 10 13.0304 10 12.5C10 11.9696 10.2107 11.4609 10.5858 11.0858Z" fill="white" fill-opacity="0.6"/>
<path fill-rule="evenodd" clip-rule="evenodd" d="M10.981 1.5C10.5268 1.5 10.1296 1.80616 10.0139 2.24545L9.50718 4.17065L7.89714 4.84936L6.66469 3.75288C6.26898 3.40083 5.66741 3.41838 5.29289 3.79289L3.29289 5.79289C2.93059 6.15519 2.90074 6.73272 3.22377 7.13045L4.3039 8.46035L3.64154 10.0899L1.77265 10.5262C1.32012 10.6318 1 11.0353 1 11.5V13.5C1 13.9509 1.30179 14.3461 1.73681 14.4647L3.6685 14.9917L4.34904 16.6061L3.25366 17.8344C2.90085 18.2301 2.91806 18.8323 3.29289 19.2071L5.29289 21.2071C5.65568 21.5699 6.23417 21.5993 6.63185 21.2751L7.96129 20.1913L9.55075 20.8452L10.0304 22.7448C10.1426 23.1889 10.542 23.5 11 23.5H13C13.4578 23.5 13.8571 23.1891 13.9694 22.7453L14.4503 20.8448L16.093 20.1645C16.2583 20.3031 16.4479 20.4659 16.6366 20.6302C16.824 20.7934 16.9983 20.9472 17.1258 21.0604C17.1894 21.1169 17.2413 21.1631 17.2771 21.1951L17.3315 21.2437C17.7269 21.5985 18.3315 21.5828 18.7071 21.2071L20.7071 19.2071C21.0752 18.8391 21.0993 18.2502 20.7627 17.8532L19.6734 16.5687L20.3475 14.9406L22.2515 14.4459C22.6923 14.3313 23 13.9334 23 13.478V11.5C23 11.0427 22.6898 10.6436 22.2466 10.5309L20.3543 10.0494L19.6819 8.42534L20.7637 7.14555C21.0993 6.7485 21.0747 6.16051 20.7071 5.79289L18.7071 3.79289C18.338 3.42378 17.7471 3.40068 17.3503 3.73985L16.0799 4.82568L14.3986 4.13439L13.9021 2.24577C13.7866 1.80633 13.3894 1.5 12.935 1.5H10.981ZM18.6416 18.4442L17.9574 19.1284L17.9499 19.1218C17.5806 18.8003 17.1049 18.3933 16.8366 18.2015C16.5558 18.0007 16.1913 17.959 15.8723 18.0911L13.2213 19.1891C12.9296 19.31 12.712 19.5615 12.6346 19.8677L12.2215 21.5H11.7789L11.3666 19.8672C11.289 19.56 11.0704 19.3077 10.7774 19.1872L8.17143 18.1152C7.83209 17.9756 7.44356 18.0331 7.15915 18.2649L6.06834 19.1541L5.37491 18.4607L6.26234 17.4656C6.51925 17.1775 6.58741 16.7672 6.43747 16.4116L5.32247 13.7666C5.20318 13.4836 4.96047 13.2711 4.66419 13.1903L3 12.7363V12.2934L4.60035 11.9198C4.9165 11.846 5.17714 11.6233 5.29939 11.3226L6.37939 8.66555C6.51675 8.32762 6.45921 7.94171 6.22923 7.65855L5.34472 6.5695L6.04008 5.87413L7.03931 6.76312C7.32738 7.01941 7.73714 7.08725 8.09245 6.93747L10.7374 5.82247C11.0233 5.70196 11.2371 5.45558 11.3161 5.15555L11.7518 3.5H12.1639L12.5909 5.12423C12.6706 5.42741 12.8878 5.67567 13.1777 5.79488L15.8847 6.90788C16.2318 7.05057 16.6295 6.98696 16.9147 6.74315L17.9468 5.861L18.6426 6.55681L17.7613 7.59945C17.5198 7.88517 17.4579 8.28181 17.601 8.62748L18.698 11.2775C18.8187 11.5689 19.0698 11.7864 19.3754 11.8641L21 12.2774V12.7046L19.3625 13.1301C19.059 13.209 18.81 13.4257 18.6901 13.7155L17.5921 16.3675C17.4487 16.7137 17.511 17.111 17.7533 17.3968L18.6416 18.4442Z" fill="white" fill-opacity="0.6"/>
</svg>
