<svg width="26" height="27" viewBox="0 0 26 27" fill="none" xmlns="http://www.w3.org/2000/svg">
<path d="M2.20178 5.2301C1.45447 5.45796 1 6.17464 1 6.95591V23.1917C1 24.4096 2.07949 25.3477 3.29061 25.2193C4.456 25.0958 5.85729 24.9783 6.96934 24.9783C9.31214 24.9783 13 25.5 13 25.5V22.3653C13 22.3653 9.87424 21.8478 8 21.8478C7.35061 21.8478 6.61099 21.9101 5.92164 21.9914C4.66452 22.1398 3.50833 21.1812 3.51722 19.9153L3.62262 4.91524C3.12 4.97826 2.62446 5.10121 2.20178 5.2301Z" fill="white" fill-opacity="0.6"/>
<path d="M22.7196 25.2272C23.9272 25.3533 25 24.4165 25 23.2024V6.89724C25 6.14635 24.5784 5.45169 23.8591 5.23591C23.4981 5.12757 23.072 5.02608 22.6123 4.96843L22.5157 19.9841C22.5076 21.2448 21.3477 22.1864 20.0975 22.0237C19.3433 21.9256 18.5279 21.8478 17.8368 21.8478C15.9625 21.8478 13 22.3653 13 22.3653V25.5C13 25.5 16.5652 24.9783 18.908 24.9783C20.0438 24.9783 21.5101 25.1009 22.7196 25.2272Z" fill="white" fill-opacity="0.6"/>
<path d="M13 25.5C13 25.5 9.31214 24.9783 6.96934 24.9783C5.85729 24.9783 4.456 25.0958 3.29061 25.2193C2.07949 25.3477 1 24.4096 1 23.1917V6.95591C1 6.17464 1.45447 5.45796 2.20178 5.2301C2.62446 5.10121 3.12 4.97826 3.62262 4.91524M13 25.5C13 25.5 16.5652 24.9783 18.908 24.9783C20.0438 24.9783 21.5101 25.1009 22.7196 25.2272C23.9272 25.3533 25 24.4165 25 23.2024V6.89724C25 6.14635 24.5784 5.45169 23.8592 5.23591C23.4981 5.12757 23.072 5.02608 22.6123 4.96843M13 25.5V22.3653M13 22.3653C13 22.3653 9.87424 21.8478 8 21.8478C7.35061 21.8478 6.61099 21.9101 5.92164 21.9914C4.66452 22.1398 3.50833 21.1812 3.51722 19.9153L3.62262 4.91524M13 22.3653C13 22.3653 15.9625 21.8478 17.8368 21.8478C18.5279 21.8478 19.3433 21.9256 20.0975 22.0237C21.3477 22.1864 22.5076 21.2448 22.5157 19.9841L22.6123 4.96843M13 22.3653V2.02174M3.62262 4.91524V3.68855C3.62262 2.72302 4.31246 1.89452 5.26884 1.76192C6.21212 1.63114 7.38812 1.5 8.31131 1.5C10.1527 1.5 13 2.02174 13 2.02174M22.6123 4.96843V3.69597C22.6123 2.72714 21.9182 1.89705 20.9582 1.76648C19.9857 1.6342 18.7632 1.5 17.8061 1.5C15.9191 1.5 13 2.02174 13 2.02174" stroke="white" stroke-opacity="0.6" stroke-width="1.5" stroke-linecap="round" stroke-linejoin="round"/>
</svg>
